<?xml version="1.0" encoding="UTF-8" standalone="no"?>
<svg
   xmlns:dc="http://purl.org/dc/elements/1.1/"
   xmlns:cc="http://creativecommons.org/ns#"
   xmlns:rdf="http://www.w3.org/1999/02/22-rdf-syntax-ns#"
   xmlns:svg="http://www.w3.org/2000/svg"
   xmlns="http://www.w3.org/2000/svg"
   viewBox="0 0 1436 872.23999"
   height="872.23999"
   width="1436"
   xml:space="preserve"
   id="svg2"
   version="1.1"><metadata
     id="metadata8"><rdf:RDF><cc:Work
         rdf:about=""><dc:format>image/svg+xml</dc:format><dc:type
           rdf:resource="http://purl.org/dc/dcmitype/StillImage" /></cc:Work></rdf:RDF></metadata><defs
     id="defs6" /><g
     transform="matrix(1.3333333,0,0,-1.3333333,0,872.24)"
     id="g10"><g
       transform="scale(0.1)"
       id="g12"><path
         id="path14"
         style="fill:#204e66;fill-opacity:1;fill-rule:nonzero;stroke:none"
         d="m 192.805,637.16 v 787.49 H 0 v 326.76 h 192.805 v 480.33 H 656.781 V 1751.41 H 1137.11 V 1424.65 H 656.781 V 637.16 c 0,-179.711 75.172,-277.73 245.063,-277.73 107.846,0 196.066,35.941 235.266,58.82 V 78.4219 C 1071.77,45.7422 947.605,0 767.891,0 362.695,0 192.805,267.922 192.805,637.16" /><path
         id="path16"
         style="fill:#204e66;fill-opacity:1;fill-rule:nonzero;stroke:none"
         d="M 2254.61,1061.96 C 2685.95,934.52 2865.66,800.539 2865.66,493.402 2865.66,176.43 2620.6,0 2248.08,0 1993.23,0 1833.1,68.6094 1725.29,179.711 L 1718.76,52.2695 H 1392 V 643.711 h 359.43 c 71.88,-179.723 215.65,-297.352 431.31,-297.352 120.9,0 218.91,49.012 218.91,150.313 0,101.289 -94.75,143.758 -163.36,163.379 l -254.89,68.597 c -267.94,71.891 -601.22,160.122 -601.22,575.112 0,323.47 232,496.66 575.11,496.66 169.89,0 349.61,-49.01 483.6,-169.91 l 6.53,120.9 h 326.75 v -571.83 h -359.43 c -55.55,186.26 -196.07,277.75 -349.64,277.75 -120.9,0 -218.91,-52.28 -218.91,-160.12 0,-91.49 58.81,-130.69 176.45,-166.64 l 231.97,-68.61" /><path
         id="path18"
         style="fill:#204e66;fill-opacity:1;fill-rule:nonzero;stroke:none"
         d="m 5012.43,885.512 v 493.398 c -84.93,45.74 -166.62,62.08 -297.35,62.08 -352.87,0 -401.89,-281.01 -401.89,-568.56 0,-330.02 107.84,-503.211 320.23,-503.211 232,0 379.01,173.191 379.01,516.293 z m 464.01,-506.481 h 186.25 V 52.2695 h -532.62 l -39.2,245.0625 h -19.62 C 4973.23,114.352 4803.31,3.26172 4535.37,3.26172 4091,3.26172 3816.5,356.148 3816.5,872.43 c 0,503.21 271.21,931.26 898.58,931.26 94.79,0 196.07,-13.08 297.35,-39.2 v 411.7 h -186.24 v 326.76 h 650.25 V 379.031" /><path
         id="path20"
         style="fill:#204e66;fill-opacity:1;fill-rule:nonzero;stroke:none"
         d="m 6999.13,709.051 v 19.597 h -248.32 c -137.25,0 -330.03,0 -330.03,-205.859 0,-111.09 71.88,-169.898 182.98,-169.898 173.19,0 395.37,101.289 395.37,356.16 z m 447.66,-330.02 h 186.28 V 52.2695 h -513.04 l -39.2,245.0625 h -19.61 C 6943.61,124.16 6744.28,3.26172 6476.34,3.26172 c -313.71,0 -552.24,153.57028 -552.24,486.85928 0,372.508 290.82,552.219 745.01,552.219 h 330.02 v 16.34 c 0,241.81 -111.07,369.24 -294.05,369.24 -143.78,0 -228.74,-49.01 -267.94,-209.13 h -437.87 c 0,457.47 352.9,584.9 705.81,584.9 656.78,0 741.71,-450.93 741.71,-745.01 V 379.031" /><path
         id="path22"
         style="fill:#204e66;fill-opacity:1;fill-rule:nonzero;stroke:none"
         d="m 7937.01,637.16 v 787.49 H 7744.2 v 326.76 h 192.81 v 480.33 h 463.98 v -480.33 h 480.33 V 1424.65 H 8400.99 V 637.16 c 0,-179.711 75.17,-277.73 245.06,-277.73 107.84,0 196.07,35.941 235.27,58.82 V 78.4219 C 8815.97,45.7422 8691.81,0 8512.09,0 8106.9,0 7937.01,267.922 7937.01,637.16" /><path
         id="path24"
         style="fill:#204e66;fill-opacity:1;fill-rule:nonzero;stroke:none"
         d="m 9606.74,1133.83 h 741.76 c -45.8,248.34 -173.2,352.91 -366,352.91 -218.92,0 -333.29,-117.64 -375.76,-352.91 z m -13.09,-300.611 c 13.09,-326.758 143.78,-477.071 450.95,-477.071 183,0 379,71.891 480.3,160.122 l 189.5,-281.02 C 10583.8,107.82 10319.1,3.26172 10044.6,3.26172 c -640.45,0 -928.01,372.50828 -928.01,901.84728 0,499.941 258.15,898.581 859.38,898.581 542.43,0 794.03,-411.71 794.03,-869.17 0,-39.219 -3.3,-78.418 -6.5,-101.301 H 9593.65" /><path
         id="path26"
         style="fill:#5dc694;fill-opacity:1;fill-rule:nonzero;stroke:none"
         d="m 5476.44,2829.71 h -464.01 v 464.01 h 464.01 v -464.01" /><path
         id="path28"
         style="fill:#5dc694;fill-opacity:1;fill-rule:nonzero;stroke:none"
         d="M 656.613,2558.5 H 192.602 v 464.01 H 656.613 V 2558.5" /><path
         id="path30"
         style="fill:#5dc694;fill-opacity:1;fill-rule:nonzero;stroke:none"
         d="m 8400.7,2558.5 h -464.01 v 464.01 H 8400.7 V 2558.5" /><path
         id="path32"
         style="fill:#5dc694;fill-opacity:1;fill-rule:nonzero;stroke:none"
         d="m 5476.44,2829.71 h -464.01 v 464.01 h 464.01 v -464.01" /><path
         id="path34"
         style="fill:#5dc694;fill-opacity:1;fill-rule:nonzero;stroke:none"
         d="m 5476.44,3293.72 h -464.01 v 464.01 h 464.01 v -464.01" /><path
         id="path36"
         style="fill:#5dc694;fill-opacity:1;fill-rule:nonzero;stroke:none"
         d="m 6920.7,4221.74 h -464.01 v 464.01 h 464.01 v -464.01" /><path
         id="path38"
         style="fill:#5dc694;fill-opacity:1;fill-rule:nonzero;stroke:none"
         d="m 6920.7,4685.75 h -464.01 v 464.01 h 464.01 v -464.01" /><path
         id="path40"
         style="fill:#5dc694;fill-opacity:1;fill-rule:nonzero;stroke:none"
         d="m 3788.66,5613.77 h -464.01 v 464.01 h 464.01 v -464.01" /><path
         id="path42"
         style="fill:#5dc694;fill-opacity:1;fill-rule:nonzero;stroke:none"
         d="M 656.613,2558.5 H 192.602 V 5613.77 H 656.613 V 2558.5" /><path
         id="path44"
         style="fill:#5dc694;fill-opacity:1;fill-rule:nonzero;stroke:none"
         d="m 3788.66,6077.78 h -464.01 v 464.01 h 464.01 v -464.01" /><path
         id="path46"
         style="fill:#5dc694;fill-opacity:1;fill-rule:nonzero;stroke:none"
         d="m 6920.7,5149.76 h -464.01 v 464.01 h 464.01 v -464.01" /><path
         id="path48"
         style="fill:#5dc694;fill-opacity:1;fill-rule:nonzero;stroke:none"
         d="M 6920.7,5149.76 H 192.602 v 464.01 H 6920.7 v -464.01" /><path
         id="path50"
         style="fill:#5dc694;fill-opacity:1;fill-rule:nonzero;stroke:none"
         d="m 5476.44,3757.73 h -464.01 v 464.01 h 464.01 v -464.01" /><path
         id="path52"
         style="fill:#5dc694;fill-opacity:1;fill-rule:nonzero;stroke:none"
         d="M 8400.7,3757.73 H 5012.43 v 464.01 H 8400.7 v -464.01" /><path
         id="path54"
         style="fill:#5dc694;fill-opacity:1;fill-rule:nonzero;stroke:none"
         d="M 8400.7,3022.51 H 7936.69 V 4221.74 H 8400.7 V 3022.51" /></g></g></svg>