<svg xmlns="http://www.w3.org/2000/svg" width="167.9186" height="124.40825" viewBox="0 0 167.9186 124.40825">
  <defs>
    <style>
      .cls-1 {
        fill: #12e3a8;
      }

      .cls-2 {
        fill: #E9E9E9;
      }

      .cls-3 {
        fill: none;
        stroke: #E9E9E9;
        stroke-linecap: round;
        stroke-linejoin: round;
        stroke-width: 3px;
      }

      .cls-4 {
        fill: #045167;
      }
    </style>
  </defs>
  <g id="Layer_2" data-name="Layer 2">
    <g id="Layer_1-2" data-name="Layer 1">
      <path class="cls-1" d="M89.90437,61.703V52.04249h.00977V45.30355a2.93438,2.93438,0,0,0-2.93433-2.93432h-18.236v-19.507a2.93438,2.93438,0,0,0-2.93433-2.93432H41.70006V5.93673a2.93433,2.93433,0,1,0-5.86865,0V19.92794H14.66789a2.93438,2.93438,0,0,0-2.93438,2.93432V56.711a2.93436,2.93436,0,0,0,5.86871,0V25.79665H38.76573l.00122-.0003.00116.0003h24.107V42.36923H44.638a2.93434,2.93434,0,0,0-2.93433,2.93432v74.79989a2.93436,2.93436,0,0,0,5.86871,0V49.22506h-.00006v-.98718H84.04542V49.916h-.0097v11.768a6.07053,6.07053,0,1,0,5.86865.019Z"/>
      <path class="cls-2" d="M21.79047,84.112c8.70684,0,15.7904,7.69262,15.7904,17.14813s-7.08356,17.14813-15.7904,17.14813C13.08356,118.40825,6,110.71562,6,101.26012S13.08356,84.112,21.79047,84.112m0-6C9.75592,78.112,0,88.47576,0,101.26012s9.75592,23.14813,21.79047,23.14813c12.03448,0,21.7904-10.36377,21.7904-23.14813S33.825,78.112,21.79047,78.112Z"/>
      <g>
        <path class="cls-2" d="M118.10317,56.66992c-9.13769,0-12.56445-3.33887-12.56445-12.125V18.45117H98.94985a1.66688,1.66688,0,0,1-1.8457-1.66992V14.76074a1.685,1.685,0,0,1,1.8457-1.75683h6.58887V2.81152A2.62945,2.62945,0,0,1,108.35024,0h1.75781a2.60671,2.60671,0,0,1,2.72364,2.81152V13.00391h10.63086a1.6597,1.6597,0,0,1,1.75683,1.75683v2.02051a1.63931,1.63931,0,0,1-1.75683,1.66992H112.83169V44.457c0,4.65723,1.49316,6.58985,5.71093,6.58985h4.91993a1.61628,1.61628,0,0,1,1.75683,1.75683V54.7373a1.734,1.734,0,0,1-1.84472,1.93262Z"/>
        <path class="cls-2" d="M165.63442,44.36914c0,7.99609-5.35937,13.26758-17.2207,13.26758-11.68555,0-17.04492-4.56934-17.04492-11.86133V44.457a1.27055,1.27055,0,0,1,1.40527-1.31738H136.904a1.11147,1.11147,0,0,1,1.22949,1.22949V45.6875c0,4.30469,3.16309,6.41406,10.28028,6.41406,7.11621,0,10.36719-2.63574,10.36719-6.9414V44.10547c0-3.95313-2.37207-5.00781-6.0625-5.53516l-9.66407-1.22949c-8.084-1.14258-11.59765-4.39355-11.59765-11.334v-.791c0-7.90723,5.18359-13.17871,16.86914-13.17871,11.24609,0,16.42968,4.56836,16.42968,11.77344v.87793a1.29344,1.29344,0,0,1-1.40527,1.40625h-4.042a1.20156,1.20156,0,0,1-1.31738-1.31836v-.87793c0-4.21778-2.98731-6.32617-9.665-6.32617-7.20508,0-10.0166,2.63574-10.0166,6.85253v.87891c0,4.042,2.37207,5.00781,6.15039,5.53516l9.665,1.31836c8.083,1.05371,11.50976,4.39257,11.50976,11.24609Z"/>
      </g>
      <path class="cls-2" d="M83.60788,116.24287c-2.37207,4.48145-7.37989,7.46875-13.96973,7.46875-10.543,0-15.99023-5.00878-15.99023-12.65234v-.791c0-8.1709,5.0957-12.73926,16.957-12.73926a43.53513,43.53513,0,0,1,10.63086,1.31738V91.906c0-5.53516-3.0752-8.25879-9.75293-8.25879-6.94043,0-9.40039,2.72363-9.40039,7.11621v.61524c0,.8789-.43946,1.40625-1.49414,1.40625H56.72311A1.34489,1.34489,0,0,1,55.229,91.29073v-.52735c0-7.90722,5.27149-12.65136,16.25391-12.65136,11.1582,0,17.04492,5.27148,17.04492,14.23339v19.32911l5.71094,5.71093c1.23047,1.2295,1.40625,2.63575.17578,3.86621l-.96582.96582a2.58048,2.58048,0,0,1-3.9541-.08789Zm-12.915,2.02149c6.23828,0,10.543-3.60254,10.543-8.78613V103.6794a40.09609,40.09609,0,0,0-9.92774-1.31836c-7.293,0-10.54394,2.63574-10.54394,7.55664v.87793C60.76413,115.45284,63.92721,118.26436,70.69284,118.26436Z"/>
      <path class="cls-2" d="M118.10219,122.74483c-9.13769,0-12.56347-3.33887-12.56347-12.125V84.52608H98.94887a1.666,1.666,0,0,1-1.84472-1.66992V80.83565a1.6842,1.6842,0,0,1,1.84472-1.75684h6.58985V68.88643a2.62894,2.62894,0,0,1,2.81152-2.81152h1.75684a2.6067,2.6067,0,0,1,2.72363,2.81152V79.07881h10.63086a1.66,1.66,0,0,1,1.75781,1.75684v2.02051a1.6396,1.6396,0,0,1-1.75781,1.66992H112.83071v26.00586c0,4.65722,1.49414,6.58984,5.71094,6.58984h4.91992a1.61657,1.61657,0,0,1,1.75781,1.75684v1.93359a1.73427,1.73427,0,0,1-1.8457,1.93262Z"/>
      <path class="cls-2" d="M150.4352,123.71162c-11.86133,0-18.627-5.71093-18.627-16.25488V94.62959c0-10.80664,6.94141-16.51757,18.09961-16.51757,11.42187,0,18.01074,5.53515,18.01074,16.166v6.23828c0,1.93262-.87793,2.81153-2.72363,2.81153H139.10024v4.65625c0,7.11718,3.86621,10.28027,11.335,10.28027,7.37989,0,10.10352-2.72363,10.10352-7.20508v-.52734c0-.79.35156-1.1416,1.23047-1.1416h4.48047a1.06142,1.06142,0,0,1,1.14257,1.1416v.61523C167.39223,118.96651,161.944,123.71162,150.4352,123.71162Zm-11.335-25.65527h21.79V93.75069c0-7.02832-3.77832-10.2793-10.98242-10.2793-6.94141,0-10.80762,3.42676-10.80762,10.2793Z"/>
      <polyline class="cls-3" points="21.79 87.935 21.79 101.26 14.034 98.243"/>
      <rect class="cls-4" x="38.54669" y="63.30622" width="6.25428" height="57.14741"/>
      <path class="cls-2" d="M42.88806,61.53575H39.47668a1.91292,1.91292,0,0,0-1.9129,1.91291v57.67627a1.91287,1.91287,0,0,0,1.9129,1.91284h3.41138a1.91286,1.91286,0,0,0,1.9129-1.91284v-1.5326H40.24115a.275.275,0,0,1-.2749-.275v-.35791a.27494.27494,0,0,1,.2749-.2749H44.801v-4.07947H43.04938a.2749.2749,0,0,1-.2749-.2749v-.35791a.27486.27486,0,0,1,.2749-.27491H44.801v-3.48669H41.17725a.27492.27492,0,0,1-.27491-.275v-.35785a.27492.27492,0,0,1,.27491-.275H44.801v-3.48669H43.04938a.27486.27486,0,0,1-.2749-.2749v-.35791a.27489.27489,0,0,1,.2749-.2749H44.801v-3.4867H40.24115a.27494.27494,0,0,1-.2749-.2749V100.789a.2749.2749,0,0,1,.2749-.2749H44.801v-3.4867H43.04938a.27491.27491,0,0,1-.2749-.275v-.35785a.2749.2749,0,0,1,.2749-.275H44.801v-3.4867H41.17725a.27487.27487,0,0,1-.27491-.2749v-.35791a.2749.2749,0,0,1,.27491-.2749H44.801v-3.4867H43.04938a.2749.2749,0,0,1-.2749-.2749V87.6057a.27485.27485,0,0,1,.2749-.2749H44.801V83.8441H40.24115a.275.275,0,0,1-.2749-.275v-.35785a.275.275,0,0,1,.2749-.275H44.801v-3.4867H43.04938a.27485.27485,0,0,1-.2749-.2749v-.35791a.2749.2749,0,0,1,.2749-.2749H44.801v-3.4867H41.17725a.2749.2749,0,0,1-.27491-.2749v-.35791a.27487.27487,0,0,1,.27491-.2749H44.801v-3.4867H43.04938a.2749.2749,0,0,1-.2749-.275V70.028a.27491.27491,0,0,1,.2749-.275H44.801V66.26641H40.24115a.275.275,0,0,1-.2749-.275v-.35791a.27494.27494,0,0,1,.2749-.2749H44.801v-1.91a1.91292,1.91292,0,0,0-1.9129-1.91291Z"/>
    </g>
  </g>
</svg>
